<mxfile host="65bd71144e">
    <diagram id="HMp9-eoMSghTFACk9TKn" name="Page-1">
        <mxGraphModel dx="1146" dy="757" grid="0" gridSize="10" guides="1" tooltips="1" connect="1" arrows="1" fold="1" page="1" pageScale="1" pageWidth="850" pageHeight="1100" background="#ffffff" math="0" shadow="0">
            <root>
                <mxCell id="0"/>
                <mxCell id="1" parent="0"/>
                <mxCell id="2" value="Passager" style="shape=umlActor;verticalLabelPosition=bottom;verticalAlign=top;html=1;fillColor=#dae8fc;strokeColor=#6c8ebf;fontColor=#080707;" parent="1" vertex="1">
                    <mxGeometry x="34" y="176" width="30" height="60" as="geometry"/>
                </mxCell>
                <mxCell id="3" value="Conducteur" style="shape=umlActor;verticalLabelPosition=bottom;verticalAlign=top;html=1;fillColor=#fa6800;strokeColor=#C73500;fontColor=#000000;" parent="1" vertex="1">
                    <mxGeometry x="34" y="320" width="30" height="60" as="geometry"/>
                </mxCell>
                <mxCell id="4" value="Administrateur" style="shape=umlActor;verticalLabelPosition=bottom;verticalAlign=top;html=1;fillColor=#f8cecc;strokeColor=#b85450;fontColor=#0b0909;" parent="1" vertex="1">
                    <mxGeometry x="31" y="738" width="28" height="61" as="geometry"/>
                </mxCell>
                <mxCell id="8" value="Gestion&lt;br&gt;&amp;nbsp;comptes" style="ellipse;whiteSpace=wrap;html=1;fillColor=#e3c800;strokeColor=#060604;fontColor=#000000;" parent="1" vertex="1">
                    <mxGeometry x="325" y="147" width="140" height="70" as="geometry"/>
                </mxCell>
                <mxCell id="9" value="Gestion &lt;br&gt;trajets" style="ellipse;whiteSpace=wrap;html=1;fillColor=#e3c800;strokeColor=#090906;fontColor=#000000;" parent="1" vertex="1">
                    <mxGeometry x="325" y="343" width="140" height="70" as="geometry"/>
                </mxCell>
                <mxCell id="10" value="Gestion &lt;br&gt;inscriptions" style="ellipse;whiteSpace=wrap;html=1;fillColor=#e3c800;strokeColor=#0e0d07;fontColor=#000000;" parent="1" vertex="1">
                    <mxGeometry x="325" y="535" width="140" height="70" as="geometry"/>
                </mxCell>
                <mxCell id="11" value="Espace&lt;br&gt;admin" style="ellipse;whiteSpace=wrap;html=1;fillColor=#e3c800;strokeColor=#0a0906;fontColor=#000000;" parent="1" vertex="1">
                    <mxGeometry x="325" y="731" width="140" height="70" as="geometry"/>
                </mxCell>
                <mxCell id="12" value="&lt;font color=&quot;#070303&quot;&gt;S'identifier (connexion membres)&lt;/font&gt;" style="rounded=1;whiteSpace=wrap;html=1;fillColor=#60a917;strokeColor=#050703;fontColor=#ffffff;" parent="1" vertex="1">
                    <mxGeometry x="649" y="350" width="150" height="70" as="geometry"/>
                </mxCell>
                <mxCell id="14" value="&lt;font color=&quot;#070303&quot;&gt;S'identifier (connexion administrateur)&lt;/font&gt;" style="rounded=1;whiteSpace=wrap;html=1;fillColor=#60a917;strokeColor=#050703;fontColor=#ffffff;" parent="1" vertex="1">
                    <mxGeometry x="662" y="607" width="150" height="70" as="geometry"/>
                </mxCell>
                <mxCell id="15" value="" style="endArrow=none;html=1;fontColor=#070303;exitX=0.5;exitY=0.5;exitDx=0;exitDy=0;exitPerimeter=0;fillColor=#0050ef;strokeColor=#001DBC;entryX=0;entryY=0.5;entryDx=0;entryDy=0;" parent="1" source="2" target="8" edge="1">
                    <mxGeometry width="50" height="50" relative="1" as="geometry">
                        <mxPoint x="564" y="567" as="sourcePoint"/>
                        <mxPoint x="614" y="517" as="targetPoint"/>
                    </mxGeometry>
                </mxCell>
                <mxCell id="16" value="" style="endArrow=none;html=1;fontColor=#070303;fillColor=#0050ef;strokeColor=#001DBC;entryX=0;entryY=0.5;entryDx=0;entryDy=0;exitX=0.5;exitY=0.5;exitDx=0;exitDy=0;exitPerimeter=0;" parent="1" source="2" target="9" edge="1">
                    <mxGeometry width="50" height="50" relative="1" as="geometry">
                        <mxPoint x="66" y="472" as="sourcePoint"/>
                        <mxPoint x="304.33618123877136" y="465.4260894472736" as="targetPoint"/>
                    </mxGeometry>
                </mxCell>
                <mxCell id="17" value="" style="endArrow=none;html=1;fontColor=#070303;exitX=0.5;exitY=0.5;exitDx=0;exitDy=0;exitPerimeter=0;fillColor=#0050ef;strokeColor=#001DBC;entryX=0;entryY=0.5;entryDx=0;entryDy=0;" parent="1" source="2" target="10" edge="1">
                    <mxGeometry width="50" height="50" relative="1" as="geometry">
                        <mxPoint x="79" y="487" as="sourcePoint"/>
                        <mxPoint x="314.33618123877136" y="475.4260894472736" as="targetPoint"/>
                    </mxGeometry>
                </mxCell>
                <mxCell id="18" value="" style="endArrow=none;html=1;fontColor=#070303;exitX=0.5;exitY=0.5;exitDx=0;exitDy=0;exitPerimeter=0;fillColor=#fa6800;strokeColor=#C73500;entryX=0;entryY=0.5;entryDx=0;entryDy=0;" parent="1" source="3" target="8" edge="1">
                    <mxGeometry width="50" height="50" relative="1" as="geometry">
                        <mxPoint x="89" y="497" as="sourcePoint"/>
                        <mxPoint x="324.33618123877136" y="485.4260894472736" as="targetPoint"/>
                    </mxGeometry>
                </mxCell>
                <mxCell id="19" value="" style="endArrow=none;html=1;fontColor=#070303;exitX=0.5;exitY=0.5;exitDx=0;exitDy=0;exitPerimeter=0;fillColor=#fa6800;strokeColor=#C73500;entryX=0;entryY=0.5;entryDx=0;entryDy=0;" parent="1" source="3" target="9" edge="1">
                    <mxGeometry width="50" height="50" relative="1" as="geometry">
                        <mxPoint x="69" y="627" as="sourcePoint"/>
                        <mxPoint x="304" y="462" as="targetPoint"/>
                    </mxGeometry>
                </mxCell>
                <mxCell id="20" value="" style="endArrow=none;html=1;fontColor=#070303;exitX=0.5;exitY=0.5;exitDx=0;exitDy=0;exitPerimeter=0;fillColor=#fa6800;strokeColor=#C73500;entryX=0;entryY=0.5;entryDx=0;entryDy=0;" parent="1" source="3" target="10" edge="1">
                    <mxGeometry width="50" height="50" relative="1" as="geometry">
                        <mxPoint x="79" y="637" as="sourcePoint"/>
                        <mxPoint x="314" y="472" as="targetPoint"/>
                    </mxGeometry>
                </mxCell>
                <mxCell id="21" value="" style="endArrow=none;html=1;fontColor=#070303;exitX=0.5;exitY=0.5;exitDx=0;exitDy=0;exitPerimeter=0;fillColor=#d80073;strokeColor=#A50040;entryX=0;entryY=0.5;entryDx=0;entryDy=0;" parent="1" source="4" target="11" edge="1">
                    <mxGeometry width="50" height="50" relative="1" as="geometry">
                        <mxPoint x="89" y="647" as="sourcePoint"/>
                        <mxPoint x="324" y="482" as="targetPoint"/>
                    </mxGeometry>
                </mxCell>
                <mxCell id="27" value="&lt;span style=&quot;color: rgb(0, 0, 0); font-family: Calibri, sans-serif; font-size: 20px; text-align: start; background-color: rgb(241, 241, 241);&quot;&gt;Diagramme de cas d'utilisation &quot;SystÃ¨me&quot;&lt;/span&gt;" style="text;strokeColor=none;fillColor=none;html=1;fontSize=24;fontStyle=1;verticalAlign=middle;align=center;fontColor=#070303;" parent="1" vertex="1">
                    <mxGeometry x="215" y="902" width="426" height="40" as="geometry"/>
                </mxCell>
                <mxCell id="28" value="&amp;lt;&amp;lt;include&amp;gt;&amp;gt;" style="html=1;verticalAlign=bottom;labelBackgroundColor=none;endArrow=open;endFill=0;dashed=1;strokeColor=#0b0a0a;strokeWidth=2;fontColor=#060404;exitX=1;exitY=0.5;exitDx=0;exitDy=0;entryX=0.5;entryY=0;entryDx=0;entryDy=0;" parent="1" source="8" target="12" edge="1">
                    <mxGeometry width="160" relative="1" as="geometry">
                        <mxPoint x="573" y="211.5" as="sourcePoint"/>
                        <mxPoint x="465" y="182" as="targetPoint"/>
                    </mxGeometry>
                </mxCell>
                <mxCell id="29" value="&amp;lt;&amp;lt;include&amp;gt;&amp;gt;" style="html=1;verticalAlign=bottom;labelBackgroundColor=none;endArrow=open;endFill=0;dashed=1;strokeColor=#0b0a0a;strokeWidth=2;fontColor=#060404;exitX=1;exitY=0.5;exitDx=0;exitDy=0;entryX=0;entryY=0.5;entryDx=0;entryDy=0;" parent="1" source="9" target="12" edge="1">
                    <mxGeometry width="160" relative="1" as="geometry">
                        <mxPoint x="597" y="409.5" as="sourcePoint"/>
                        <mxPoint x="489" y="380" as="targetPoint"/>
                    </mxGeometry>
                </mxCell>
                <mxCell id="30" value="&amp;lt;&amp;lt;include&amp;gt;&amp;gt;" style="html=1;verticalAlign=bottom;labelBackgroundColor=none;endArrow=open;endFill=0;dashed=1;strokeColor=#0b0a0a;strokeWidth=2;fontColor=#060404;exitX=1;exitY=0.5;exitDx=0;exitDy=0;entryX=0.5;entryY=1;entryDx=0;entryDy=0;" parent="1" source="10" target="12" edge="1">
                    <mxGeometry width="160" relative="1" as="geometry">
                        <mxPoint x="612" y="592.5" as="sourcePoint"/>
                        <mxPoint x="504" y="563" as="targetPoint"/>
                    </mxGeometry>
                </mxCell>
                <mxCell id="31" value="&amp;lt;&amp;lt;include&amp;gt;&amp;gt;" style="html=1;verticalAlign=bottom;labelBackgroundColor=none;endArrow=open;endFill=0;dashed=1;strokeColor=#0b0a0a;strokeWidth=2;fontColor=#060404;exitX=1;exitY=0.5;exitDx=0;exitDy=0;entryX=0;entryY=0.5;entryDx=0;entryDy=0;" parent="1" source="11" target="14" edge="1">
                    <mxGeometry width="160" relative="1" as="geometry">
                        <mxPoint x="609" y="757.5" as="sourcePoint"/>
                        <mxPoint x="501" y="728" as="targetPoint"/>
                    </mxGeometry>
                </mxCell>
                <mxCell id="32" value="" style="endArrow=none;html=1;fontColor=#070303;exitX=0.5;exitY=0.5;exitDx=0;exitDy=0;exitPerimeter=0;fillColor=#6a00ff;strokeColor=#3700CC;entryX=0;entryY=0.5;entryDx=0;entryDy=0;" edge="1" parent="1" source="33" target="10">
                    <mxGeometry width="50" height="50" relative="1" as="geometry">
                        <mxPoint x="77" y="688" as="sourcePoint"/>
                        <mxPoint x="292.0000000000016" y="999.5" as="targetPoint"/>
                    </mxGeometry>
                </mxCell>
                <mxCell id="33" value="Conducteur&lt;br&gt;Passager" style="shape=umlActor;verticalLabelPosition=bottom;verticalAlign=top;html=1;fillColor=#6a00ff;strokeColor=#3700CC;fontColor=#050505;" vertex="1" parent="1">
                    <mxGeometry x="34" y="457" width="30" height="60" as="geometry"/>
                </mxCell>
                <mxCell id="34" value="" style="endArrow=none;html=1;fontColor=#070303;exitX=0.5;exitY=0.5;exitDx=0;exitDy=0;exitPerimeter=0;fillColor=#6a00ff;strokeColor=#3700CC;entryX=0;entryY=0.5;entryDx=0;entryDy=0;" edge="1" parent="1" source="33" target="9">
                    <mxGeometry width="50" height="50" relative="1" as="geometry">
                        <mxPoint x="59" y="497" as="sourcePoint"/>
                        <mxPoint x="335" y="580" as="targetPoint"/>
                    </mxGeometry>
                </mxCell>
                <mxCell id="35" value="" style="endArrow=none;html=1;fontColor=#070303;exitX=0.5;exitY=0.5;exitDx=0;exitDy=0;exitPerimeter=0;fillColor=#6a00ff;strokeColor=#3700CC;entryX=0;entryY=0.5;entryDx=0;entryDy=0;" edge="1" parent="1" source="33" target="8">
                    <mxGeometry width="50" height="50" relative="1" as="geometry">
                        <mxPoint x="69" y="507" as="sourcePoint"/>
                        <mxPoint x="345" y="590" as="targetPoint"/>
                    </mxGeometry>
                </mxCell>
            </root>
        </mxGraphModel>
    </diagram>
</mxfile>